<svg width="25" height="25" viewBox="0 0 25 25" fill="none" xmlns="http://www.w3.org/2000/svg">
<path id="Union" fill-rule="evenodd" clip-rule="evenodd" d="M2.201 14.2368C2.10679 14.1432 2.04843 14.0135 2.04843 13.8703V3.43831C2.04843 1.54214 3.59127 0 5.48675 0C7.26391 0 8.73108 1.35563 8.90732 3.08767L9.21572 2.97546C9.85765 2.74197 10.5671 2.84529 11.2124 3.2675C11.7123 3.59437 12.1271 4.08324 12.4043 4.66645L12.6788 4.56651C12.9468 4.46939 13.2436 4.60715 13.3407 4.87508C13.4385 5.14301 13.3001 5.43986 13.0322 5.53698L6.22924 8.01309C6.17069 8.03444 6.11146 8.04408 6.05291 8.04408V8.04477C5.84215 8.04477 5.64379 7.91459 5.56733 7.70452C5.46953 7.43659 5.60797 7.13973 5.8759 7.04262L6.20394 6.92322C6.04132 6.29803 6.04447 5.65658 6.21753 5.08515C6.44069 4.34679 6.91731 3.81162 7.55924 3.57813L7.89224 3.45698C7.89202 3.45078 7.89191 3.44456 7.89191 3.43831C7.89191 2.11244 6.81331 1.03315 5.48675 1.03315C4.16019 1.03315 3.08158 2.11175 3.08158 3.43831V13.8703C3.08158 14.0135 3.02323 14.1432 2.92902 14.2368H23.9835C24.2687 14.2368 24.5001 14.4682 24.5001 14.7533C24.5001 15.0385 24.2687 15.2699 23.9835 15.2699H23.0509C22.9972 17.3791 22.5004 19.1983 21.6066 20.5507C21.1843 21.1892 20.6804 21.7105 20.1053 22.1089C20.1895 22.1525 20.2626 22.2197 20.3138 22.3077L21.1093 23.6749C21.2526 23.9215 21.1692 24.2376 20.9227 24.3809C20.8407 24.4284 20.7518 24.4511 20.6637 24.4511C20.486 24.4511 20.3124 24.3595 20.2167 24.1942L19.4211 22.827C19.369 22.7373 19.3469 22.6384 19.3517 22.5419C18.6233 22.8821 17.8061 23.0564 16.9161 23.0564H8.08408C7.19432 23.0564 6.37741 22.8822 5.64917 22.5422C5.65393 22.6386 5.63181 22.7374 5.57973 22.827L4.78421 24.1942C4.68847 24.3589 4.5149 24.4511 4.3372 24.4511C4.24904 24.4511 4.1595 24.4284 4.07822 24.3809C3.83165 24.2376 3.74831 23.9215 3.89157 23.6749L4.68709 22.3077C4.73815 22.2198 4.81118 22.1527 4.89519 22.1091C4.31994 21.7106 3.81594 21.1893 3.39359 20.5507C2.49914 19.1989 2.00288 17.3792 1.94929 15.2699H1.01666C0.731516 15.2699 0.500092 15.0385 0.500092 14.7533C0.500092 14.4682 0.731516 14.2368 1.01666 14.2368H2.201ZM7.18162 6.56737L11.4272 5.02206C11.233 4.65028 10.9596 4.33579 10.6477 4.1319C10.2812 3.89221 9.89828 3.82609 9.56974 3.94593L7.91326 4.5486C7.58472 4.66845 7.33333 4.9653 7.20659 5.38407C7.09846 5.7406 7.09143 6.15745 7.18162 6.56737ZM2.98276 15.2699H22.0174C21.9658 17.1727 21.5288 18.7956 20.7449 19.9804C19.8489 21.3352 18.5609 22.0226 16.9161 22.0226H8.08408C6.43931 22.0226 5.15132 21.3359 4.25524 19.9804C3.47206 18.7956 3.03448 17.1733 2.98276 15.2699Z" fill="#949494"/>
</svg>
