<svg width="73" height="73" viewBox="0 0 73 73" fill="none" xmlns="http://www.w3.org/2000/svg">
<g id="Group 2">
<circle id="Ellipse 2" cx="36.1478" cy="36.8284" r="34.9261" fill="#212022" stroke="#EFA936" stroke-width="2"/>
<g id="Instagram">
<path id="Vector" d="M44.5889 49.9309H27.7068C25.3739 49.9309 23.468 48.025 23.468 45.6921V28.81C23.468 26.4772 25.3739 24.5713 27.7068 24.5713H44.5889C46.9217 24.5713 48.8276 26.4772 48.8276 28.81V45.6921C48.8276 48.0354 46.9321 49.9309 44.5889 49.9309Z" fill="white"/>
<path id="Vector_2" d="M36.153 43.7653C34.4138 43.7653 32.7787 43.0884 31.5497 41.8595C30.3208 40.6305 29.6439 38.9954 29.6439 37.2562C29.6439 35.517 30.3208 33.8819 31.5497 32.6529C32.7787 31.424 34.4138 30.7471 36.153 30.7471C37.8922 30.7471 39.5273 31.424 40.7563 32.6529C41.9852 33.8819 42.6621 35.517 42.6621 37.2562C42.6621 38.9954 41.9852 40.6305 40.7563 41.8595C39.5169 43.0884 37.8922 43.7653 36.153 43.7653ZM36.153 32.1322C33.3306 32.1322 31.029 34.4234 31.029 37.2562C31.029 40.0786 33.3202 42.3802 36.153 42.3802C38.9754 42.3802 41.277 40.089 41.277 37.2562C41.2666 34.4338 38.9754 32.1322 36.153 32.1322Z" fill="black"/>
<path id="Vector_3" d="M43.9309 30.5333C44.6212 30.5333 45.1807 29.9737 45.1807 29.2835C45.1807 28.5932 44.6212 28.0337 43.9309 28.0337C43.2407 28.0337 42.6812 28.5932 42.6812 29.2835C42.6812 29.9737 43.2407 30.5333 43.9309 30.5333Z" fill="black"/>
</g>
</g>
</svg>
