<svg width="73" height="73" viewBox="0 0 73 73" fill="none" xmlns="http://www.w3.org/2000/svg">
<g id="Group 4">
<circle id="Ellipse 4" cx="36.7043" cy="36.8284" r="34.9261" fill="#212022" stroke="#EFA936" stroke-width="2"/>
<g id="LinkedIn">
<path id="Vector" d="M28.5919 32.187H22.4097V51.9017H28.5919V32.187Z" fill="white"/>
<path id="Vector_2" d="M45.3152 31.7598C45.0873 31.7313 44.8452 31.7171 44.603 31.7029C41.1415 31.5604 39.19 33.6116 38.5063 34.4948C38.3211 34.737 38.2356 34.8794 38.2356 34.8794V32.2442H32.3241V51.9588H38.2356H38.5063C38.5063 49.9503 38.5063 47.956 38.5063 45.9475C38.5063 44.8649 38.5063 43.7823 38.5063 42.6998C38.5063 41.3608 38.4066 39.9363 39.0761 38.7112C39.6459 37.6856 40.6715 37.1728 41.8253 37.1728C45.244 37.1728 45.3152 40.2639 45.3152 40.5488C45.3152 40.563 45.3152 40.5773 45.3152 40.5773V52.0443H51.4974V39.1813C51.4974 34.7797 49.261 32.1872 45.3152 31.7598Z" fill="white"/>
<path id="Vector_3" d="M25.5008 29.6373C27.4834 29.6373 29.0905 28.0302 29.0905 26.0477C29.0905 24.0652 27.4834 22.458 25.5008 22.458C23.5183 22.458 21.9112 24.0652 21.9112 26.0477C21.9112 28.0302 23.5183 29.6373 25.5008 29.6373Z" fill="white"/>
</g>
</g>
</svg>
